<svg id="Layer_3" enable-background="new 0 0 64 64" height="512" viewBox="0 0 64 64" width="512" xmlns="http://www.w3.org/2000/svg"><g><path d="m36.101 7h-8.201c-5.468 0-9.9 4.432-9.9 9.899 0 2.625 1.043 5.143 2.899 7l.272.272c1.812 1.812 2.829 4.268 2.829 6.829l3 6h10l3-6c0-2.561 1.017-5.017 2.828-6.828l.272-.272c1.857-1.857 2.899-4.375 2.899-7 .001-5.468-4.431-9.9-9.898-9.9zm-12.101 13c0-1.657 1.343-3 3-3s3 1.343 3 3-1.343 3-3 3-3-1.343-3-3zm9.465 10h-2.93c-.848 0-1.535-.687-1.535-1.535 0-.303.09-.599.258-.852l1.188-1.781c.346-.52.929-.832 1.554-.832s1.208.312 1.555.832l1.188 1.781c.167.252.257.549.257.852 0 .848-.687 1.535-1.535 1.535zm3.535-7c-1.657 0-3-1.343-3-3s1.343-3 3-3 3 1.343 3 3-1.343 3-3 3z" fill="#f4b2b0"/><g fill="#b3404a"><path d="m27 23.999c2.206 0 4-1.794 4-4s-1.794-4-4-4-4 1.794-4 4 1.794 4 4 4zm0-5.999c1.103 0 2 .897 2 2s-.897 2-2 2-2-.897-2-2c0-1.104.897-2 2-2z"/><path d="m37 23.999c2.206 0 4-1.794 4-4s-1.794-4-4-4-4 1.794-4 4 1.794 4 4 4zm0-5.999c1.103 0 2 .897 2 2s-.897 2-2 2-2-.897-2-2c0-1.104.897-2 2-2z"/><path d="m29.612 25.277-1.187 1.78c-.278.418-.425.904-.425 1.407 0 1.398 1.137 2.535 2.535 2.535h2.929c1.398 0 2.535-1.137 2.535-2.535 0-.502-.147-.988-.426-1.406l-1.187-1.781c-.533-.8-1.426-1.277-2.387-1.277s-1.853.477-2.387 1.277zm1.665 1.11c.161-.243.431-.387.722-.387h.001c.291 0 .561.145.722.387l1.188 1.781c.059.088.09.191.09.296 0 .295-.24.535-.535.535h-2.929c-.295 0-.535-.24-.535-.535 0-.106.031-.208.09-.297z"/><path d="m19 37c.457 0 .912-.082 1.345-.24l6.24 6.24-4.24 4.24c-.433-.159-.888-.24-1.345-.24-2.206 0-4 1.794-4 4 0 1.897 1.327 3.49 3.102 3.898.409 1.774 2.001 3.102 3.898 3.102 2.206 0 4-1.794 4-4 0-.457-.082-.912-.24-1.345l4.24-4.24 4.24 4.24c-.158.432-.24.887-.24 1.344 0 1.069.416 2.073 1.171 2.829.755.755 1.76 1.172 2.828 1.172h.001c1.896 0 3.489-1.327 3.898-3.102 1.774-.409 3.102-2.002 3.102-3.899 0-2.206-1.794-4-4-4-.458 0-.913.082-1.346.24l-4.24-4.239 6.24-6.24c.433.158.889.24 1.346.24 2.206 0 4-1.794 4-4 0-1.897-1.327-3.49-3.102-3.898-.367-1.595-1.695-2.82-3.337-3.053.289-.412.61-.806.974-1.17l.272-.272c2.059-2.06 3.193-4.797 3.193-7.708 0-6.01-4.89-10.899-10.9-10.899h-8.201c-2.911 0-5.648 1.134-7.707 3.192s-3.192 4.796-3.192 7.707c0 2.912 1.133 5.649 3.192 7.708l.272.272c.364.364.685.758.974 1.17-1.642.233-2.968 1.457-3.336 3.052-.726.166-1.392.532-1.931 1.071-.755.754-1.171 1.759-1.171 2.828 0 2.205 1.794 4 4 4zm6.847 14.738c-.326.327-.387.834-.146 1.228.198.326.299.673.299 1.033 0 1.103-.897 2-2 2s-2-.897-2-2c0-.552-.448-1-1-1-1.103 0-2-.897-2-2s.897-2 2-2c.36 0 .708.101 1.033.299.394.24.901.181 1.228-.146l4.739-4.738 2.586 2.586zm16.153-23.738c1.103 0 2 .897 2 2 0 .552.448 1 1 1 1.103 0 2 .897 2 2s-.897 2-2 2c-.361 0-.708-.101-1.034-.299-.392-.239-.901-.18-1.228.146l-6.738 6.738-3.586-3.586h4.586c.378 0 .725-.214.894-.553l3-6c.07-.138.106-.292.106-.447 0-1.018.184-2.006.519-2.937.156-.038.316-.062.481-.062zm-23-11.101c0-2.377.925-4.612 2.606-6.293s3.916-2.606 6.293-2.606h8.201c4.907 0 8.9 3.992 8.9 8.899 0 2.377-.926 4.612-2.607 6.293l-.272.272c-1.956 1.957-3.058 4.539-3.118 7.294l-2.621 5.241h-.382v-3h-2v3h-1v-3h-2v3h-1v-3h-2v3h-.382l-2.621-5.241c-.062-2.756-1.164-5.338-3.119-7.294l-.272-.272c-1.681-1.681-2.606-3.916-2.606-6.293zm-1.415 14.686c.378-.377.88-.585 1.415-.585.265 0 .52-.105.707-.293s.293-.442.293-.707c0-1.103.897-2 2-2 .164 0 .324.026.481.065.334.929.519 1.917.519 2.935 0 .155.036.308.105.447l3 6c.169.339.516.553.895.553h2.584l11.153 11.153c.328.327.836.387 1.228.146.326-.199.674-.3 1.034-.3 1.103 0 2 .897 2 2s-.897 2-2 2c-.553 0-1 .448-1 1 0 1.103-.897 2-2 2-.534 0-1.036-.208-1.414-.585-.377-.378-.585-.88-.585-1.415 0-.36.101-.708.299-1.033.24-.394.18-.901-.146-1.228l-16.892-16.891c-.326-.327-.833-.385-1.228-.146-.325.197-.673.299-1.033.299-1.103 0-2-.897-2-2 0-.535.208-1.037.585-1.415z"/><path d="m32 63c17.093 0 31-13.907 31-31 0-17.094-13.907-31-31-31-17.094 0-31 13.907-31 31-.001 17.093 13.906 31 31 31zm0-60.001c15.99 0 29 13.01 29 29s-13.01 29-29 29c-15.991 0-29-13.01-29-29-.001-15.99 13.009-29 29-29z"/></g></g></svg>