<svg id="Layer_1" enable-background="new 0 0 512.585 512.585" height="512" viewBox="0 0 512.585 512.585" width="512" xmlns="http://www.w3.org/2000/svg"><g><g><g id="XMLID_1197_"><path d="m263.825 512.585c-13.144 0-23.799-10.655-23.799-23.799v-190.229c0-13.144 10.655-23.799 23.799-23.799s23.799 10.655 23.799 23.799v190.229c0 13.143-10.655 23.799-23.799 23.799z" fill="#414b82"/></g><g id="XMLID_1184_"><path d="m88.647 402.805c-1.021-13.104 8.775-24.554 21.879-25.575l71.626-5.577v-73.096c0-13.144 10.655-23.799 23.799-23.799s23.799 10.655 23.799 23.799v95.114c0 12.427-9.562 22.763-21.951 23.727l-93.577 7.287c-13.124 1.02-24.556-8.789-25.575-21.88z" fill="#5f6e9b"/></g></g><g><circle cx="234.888" cy="54.29" fill="#ffb69e" r="41.104"/></g><g fill="#ffb69e"><path d="m150.967 91.299-14.184-6.017-25.436-72.047c-3.646-10.327-14.975-15.745-25.304-12.098-10.328 3.646-15.745 14.975-12.099 25.304l28.346 80.289c1.855 5.251 5.83 9.481 10.957 11.655 8.09 3.422 21.437 9.077 21.437 9.077l19.025-12.723z"/><path d="m254.922 108.615-.014-.119h-40.678l-.022.186c-1.422 12.181 8.097 22.876 20.361 22.876 12.291 0 21.819-10.741 20.353-22.943z"/><path d="m438.772 155.957c-3.434-10.4-14.649-16.049-25.051-12.614l-65.689 21.689-7.729-8.552-21.487 7.901-8.307 18.289 16.76 18.543c5.275 5.837 13.488 7.992 20.931 5.534l77.957-25.74c10.401-3.433 16.049-14.649 12.615-25.05z"/></g><path d="m340.512 156.292-28.586-31.206c-9.529-10.543-23.146-16.59-37.358-16.59h-19.66c.019.243.055.483.066.728.493 10.999-9.713 20.366-20.366 20.366-11.418 0-19.872-9.332-20.367-20.366-.011-.244-.01-.486-.011-.728h-22.723l-40.54-17.197c-.474.231-16.283 36.163-16.283 36.163 47.891 20.3 45.112 19.291 47.45 19.945v151.15h105.479l-.173-141.409 23.07 25.524z" fill="#64afff"/></g></svg>