<svg id="Capa_1" enable-background="new 0 0 512 512" height="20" viewBox="0 0 512 512" width="20" xmlns="http://www.w3.org/2000/svg"><g><path d="m37.463 256h27.057v67.642h-27.057z" fill="#cbcbcb"/><path d="m37.463 256h27.057v20.813h-27.057z" fill="#ababab"/><path d="m103.024 512c-21.265 0-38.504-17.239-38.504-38.504v-151.935c0-21.265 17.239-38.504 38.504-38.504 21.265 0 38.504 17.239 38.504 38.504v151.935c0 21.265-17.238 38.504-38.504 38.504z" fill="#595959"/><path d="m103.024 283.057c-4.373 0-8.571.739-12.488 2.082 15.133 5.188 26.016 19.529 26.016 36.422v151.935c0 16.892-10.883 31.234-26.016 36.422 3.917 1.343 8.115 2.082 12.488 2.082 21.265 0 38.504-17.239 38.504-38.504v-151.935c0-21.265-17.238-38.504-38.504-38.504z" fill="#434343"/><path d="m64.52 473.496-44.713-2.164c-11.091-.536-19.807-9.685-19.807-20.788v-106.03c0-11.104 8.716-20.252 19.807-20.789l44.713-2.164z" fill="#fb636f"/><path d="m19.807 471.332 11.412.552v-148.712l-11.412.552c-11.091.537-19.807 9.686-19.807 20.789v106.03c0 11.104 8.716 20.253 19.807 20.789z" fill="#fce25c"/><path d="m447.48 256h27.057v67.642h-27.057z" fill="#cbcbcb" transform="matrix(-1 0 0 -1 922.016 579.642)"/><path d="m447.48 256h27.057v20.813h-27.057z" fill="#ababab"/><path d="m256 62.439c-81.632 0-150.105 56.287-168.758 132.163h17.79c8.361 0 15.967-4.979 19.164-12.705 21.406-51.74 72.42-88.238 131.805-88.238s110.399 36.498 131.804 88.238c3.196 7.726 10.803 12.705 19.164 12.705h17.79c-18.654-75.876-87.128-132.163-168.759-132.163z" fill="#9b9b9b"/><path d="m19.772 236.227v9.366c0 5.747 4.659 10.407 10.407 10.407h41.626c5.747 0 10.407-4.659 10.407-10.407v-9.366c0-95.981 77.808-173.788 173.788-173.788 95.981 0 173.788 77.808 173.788 173.788v9.366c0 5.747 4.659 10.407 10.407 10.407h41.626c5.747 0 10.406-4.659 10.406-10.407v-9.366c.001-130.464-105.762-236.227-236.227-236.227-130.465 0-236.228 105.763-236.228 236.227z" fill="#fb636f"/><g fill="#fa4954"><path d="m233.106 62.439c-95.981 0-173.789 77.808-173.789 173.788v9.366c0 5.747-4.659 10.407-10.407 10.407h22.894c5.747 0 10.407-4.659 10.407-10.407v-9.366c0-92.133 71.699-167.508 162.341-173.404-3.784-.245-7.599-.384-11.446-.384z"/><path d="m256 0c-3.839 0-7.654.099-11.447.28 125.147 5.972 224.78 109.321 224.78 235.947v9.366c0 5.747-4.659 10.407-10.407 10.407h22.894c5.747 0 10.406-4.659 10.406-10.407v-9.366c.002-130.464-105.761-236.227-236.226-236.227z"/></g><path d="m408.976 512c21.265 0 38.504-17.239 38.504-38.504v-151.935c0-21.265-17.239-38.504-38.504-38.504-21.265 0-38.504 17.239-38.504 38.504v151.935c0 21.265 17.238 38.504 38.504 38.504z" fill="#595959"/><path d="m408.976 283.057c-4.373 0-8.57.739-12.488 2.082 15.133 5.188 26.016 19.529 26.016 36.422v151.935c0 16.892-10.883 31.234-26.016 36.422 3.917 1.343 8.115 2.082 12.488 2.082 21.265 0 38.504-17.239 38.504-38.504v-151.935c0-21.265-17.239-38.504-38.504-38.504z" fill="#434343"/><path d="m447.48 473.496 44.713-2.164c11.091-.537 19.807-9.685 19.807-20.789v-106.03c0-11.104-8.716-20.252-19.807-20.789l-44.713-2.164z" fill="#fa4954"/><path d="m492.193 471.332-11.412.552v-148.712l11.412.552c11.091.537 19.807 9.686 19.807 20.789v106.03c0 11.104-8.716 20.253-19.807 20.789z" fill="#fbd307"/><g><path d="m312.2 47.236c-.668 0-1.347-.087-2.022-.27-17.579-4.756-35.807-7.166-54.178-7.166-18.37 0-36.599 2.411-54.178 7.166-4.123 1.112-8.362-1.322-9.476-5.441s1.321-8.362 5.441-9.476c18.894-5.111 38.48-7.703 58.213-7.703s39.319 2.592 58.212 7.703c4.12 1.114 6.555 5.357 5.442 9.476-.932 3.443-4.05 5.71-7.454 5.711z" fill="#fa4954"/></g></g></svg>