<svg id="Capa_1" enable-background="new 0 0 512 512" height="512" viewBox="0 0 512 512" width="512" xmlns="http://www.w3.org/2000/svg"><g><path d="m350.183 435.428c-11.956-5.192-19.861-17.037-19.861-30.294v-38.448h-148.645v38.448c0 13.26-7.908 25.107-19.869 30.297l-3.17 43.569h194.724z" fill="#f6d190"/><path d="m181.677 366.686c21.572 13.509 46.993 21.443 74.323 21.443s52.751-7.934 74.323-21.443v-28.105h-148.646z" fill="#ecbd83"/><path d="m322.064 0h-107.354c-15.375 0-28.181 10.552-31.865 24.774l-75.49 198.194h297.29v-140.387c0-45.609-36.973-82.581-82.581-82.581z" fill="#966a5b"/><path d="m181.677 24.774h-16.516c-31.925 0-57.806 25.881-57.806 57.806v140.387h74.323v-198.193z" fill="#785353"/><path d="m421.126 229.894c-.701-13.397-12.726-23.442-26.141-23.442h-6.856c-13.682 0-24.774-11.092-24.774-24.774v-41.29c0-18.244-14.789-33.032-33.032-33.032h-148.646l-29.177 180.144 226.954-31.5h16.933c14.124 0 25.488-11.819 24.739-26.106z" fill="#ffe09f"/><path d="m181.677 247.742v-140.387c-18.244 0-33.032 14.789-33.032 33.032v41.29c0 13.682-11.092 24.774-24.774 24.774h-6.856c-13.415 0-25.439 10.045-26.141 23.442-.749 14.288 10.615 26.107 24.739 26.107h16.933l38.427 12.849c4.173.215 8.368.332 12.569.403-1.223-6.986-1.865-14.173-1.865-21.51z" fill="#f6d190"/><g><path d="m206.452 231.226c-4.565 0-8.258-3.694-8.258-8.258v-8.258c0-4.565 3.694-8.258 8.258-8.258s8.258 3.694 8.258 8.258v8.258c0 4.564-3.694 8.258-8.258 8.258z" fill="#6e4848"/></g><g><path d="m305.548 231.226c-4.565 0-8.258-3.694-8.258-8.258v-8.258c0-4.565 3.694-8.258 8.258-8.258 4.565 0 8.258 3.694 8.258 8.258v8.258c0 4.564-3.693 8.258-8.258 8.258z" fill="#6e4848"/></g><g><path d="m181.669 198.194c-3.702 0-7.065-2.5-8-6.258-1.113-4.419 1.581-8.903 6.008-10.008l33.032-8.258c4.411-1.121 8.903 1.581 10.008 6.008 1.113 4.419-1.581 8.903-6.008 10.008l-33.032 8.258c-.669.169-1.346.25-2.008.25z" fill="#785353"/></g><g><path d="m330.331 198.194c-.661 0-1.339-.081-2.008-.25l-33.032-8.258c-4.427-1.105-7.121-5.589-6.008-10.008 1.097-4.427 5.589-7.137 10.008-6.008l33.032 8.258c4.427 1.105 7.121 5.589 6.008 10.008-.936 3.758-4.299 6.258-8 6.258z" fill="#785353"/></g><path d="m371.063 189.953c-4.389.284-7.709 4.124-7.709 8.523v49.524c0 4.418-3.582 8-8 8h-173.395c-21.459 55 8.041 113.25 73.666 113.25 8.454 0 17.09 1.512 25.077-.11 36.909-7.492 67.957-31.428 85.103-63.78l9.818-24.587c2.224-7.968 3.669-16.255 4.247-24.774v-57.806c.001-4.742-3.997-8.551-8.807-8.24z" fill="#faf5dc"/><path d="m365.805 305.361c4.14-7.828 7.416-15.878 9.818-24.587h-189.464c-2.2-7.967-3.638-16.251-4.2-24.774h-25.314c-4.418 0-8-3.582-8-8v-49.524c0-4.398-3.319-8.239-7.709-8.523-4.81-.311-8.808 3.497-8.808 8.24v57.807c.579 8.519 2.024 16.806 4.247 24.773l9.832 24.613c20.861 39.338 62.278 66.227 109.792 66.227 8.463 0 16.719-.855 24.702-2.473-24.236-4.936-45.882-16.976-62.719-33.824 12.151 2.138 24.903 3.265 38.018 3.265 43.298 0 83.237-12.426 109.805-33.22zm-164.685 8.982c-3.457-5.412-6.498-11.112-9.095-17.053h156.585c-23.552 15.512-56.976 24.774-92.61 24.774-19.358 0-38.057-2.737-54.88-7.721z" fill="#f5ebcd"/><path d="m136.404 280.91c3.096 11.903 9.804 24.425 9.825 24.465 18.501 14.486 43.82 25.01 71.753 29.941-6.319-6.342-12.03-13.387-16.863-20.973-14.129-4.19-26.976-9.974-37.724-17.053h28.629c-2.322-5.317-4.299-10.842-5.866-16.516h-49.787c.014.046.021.09.033.136z" fill="#f4dbb3"/><path d="m439.272 463.466-55.607-17.377-127.665 51.411-127.665-51.411-55.607 17.377c-13.79 4.309-23.179 17.081-23.179 31.528 0 9.392 7.614 17.006 17.006 17.006h378.891c9.392 0 17.006-7.614 17.006-17.006 0-14.448-9.39-27.219-23.18-31.528z" fill="#dad8db"/><path d="m383.665 446.089-30.163-9.426c-1.129-.353-2.251-.772-3.319-1.235-22.72 26.657-56.413 43.54-94.183 43.54s-71.471-16.879-94.192-43.536c-1.068.463-2.181.878-3.31 1.231l-30.163 9.426c28.454 39.846 74.97 65.911 127.665 65.911s99.211-26.065 127.665-65.911z" fill="#eceaec"/></g></svg>